<?xml version="1.0" standalone="no"?>
<!DOCTYPE svg PUBLIC "-//W3C//DTD SVG 20010904//EN"
 "http://www.w3.org/TR/2001/REC-SVG-20010904/DTD/svg10.dtd">
<svg version="1.0" xmlns="http://www.w3.org/2000/svg"
 width="438.000000pt" height="259.000000pt" viewBox="0 0 438.000000 259.000000"
 preserveAspectRatio="xMidYMid meet">

<g transform="translate(0.000000,259.000000) scale(0.100000,-0.100000)"
fill="#0019ff" stroke="none">  <!-- Altere o fill para #0019ff -->
<path d="M50 2401 c0 -78 1 -141 3 -141 1 -1 46 -5 100 -9 54 -5 102 -12 105
-16 8 -8 15 -1707 7 -1752 -7 -38 -13 -41 -125 -49 l-90 -7 0 -136 0 -136
1001 0 1001 0 -6 70 c-4 39 -9 98 -12 131 l-6 61 88 8 c49 4 121 15 159 25 39
10 73 15 76 12 3 -4 12 -23 19 -42 40 -104 124 -194 224 -241 178 -82 455 -56
603 57 l33 25 47 -40 c61 -54 146 -81 283 -88 117 -6 263 14 335 46 l41 18 44
-25 c57 -34 146 -36 207 -4 88 46 128 120 121 222 -6 77 -44 133 -119 173 -49
26 -60 28 -119 23 -92 -10 -95 -10 -123 -29 l-25 -16 -4 497 c-4 470 -6 501
-26 575 -12 42 -33 97 -48 122 -67 114 -212 209 -369 240 -173 35 -447 29
-614 -14 l-70 -17 -32 65 c-65 131 -189 221 -379 273 -75 20 -106 23 -270 22
-158 0 -197 -4 -265 -22 -272 -75 -476 -257 -561 -500 -49 -143 -58 -204 -58
-422 0 -186 3 -215 26 -316 39 -167 111 -306 202 -393 20 -19 36 -40 36 -47 0
-19 -109 -112 -160 -136 -35 -18 -63 -23 -130 -23 l-85 0 -3 850 c-2 468 0
869 3 892 7 49 15 53 110 59 39 3 85 7 103 10 l32 5 0 140 0 141 -88 -8 c-114
-10 -1021 -10 -1134 0 l-88 8 0 -141z m1200 -11 c0 -27 -2 -29 -57 -35 -135
-15 -168 -42 -183 -146 -12 -78 -12 -1704 -1 -1773 6 -35 16 -57 35 -73 25
-21 36 -23 148 -23 113 0 124 2 183 30 38 18 93 58 139 101 l77 72 52 -26 c66
-34 154 -64 210 -72 24 -4 49 -10 55 -14 6 -4 14 -43 18 -86 l6 -80 -886 0
-886 0 0 31 c0 31 1 31 59 37 79 7 112 24 136 72 20 39 20 60 20 935 0 819 -1
898 -17 932 -22 49 -65 74 -139 82 -57 7 -59 8 -59 36 l0 30 538 2 c295 2 540
2 545 0 4 -2 7 -16 7 -32z m1112 -219 c160 -41 273 -128 317 -243 9 -25 6 -28
-54 -67 -114 -74 -177 -164 -196 -282 -6 -35 -12 -69 -14 -75 -5 -16 -106 1
-154 26 -127 64 -172 232 -101 376 34 70 100 132 165 155 19 7 35 16 35 21 0
14 -85 30 -136 25 -67 -7 -144 -46 -178 -91 -131 -172 -185 -645 -103 -895 50
-152 185 -251 343 -251 32 0 74 4 92 9 17 5 32 8 32 5 0 -3 -11 -26 -24 -52
-26 -51 -45 -131 -49 -202 l-2 -45 -69 -23 c-173 -58 -422 -31 -593 64 -81 45
-176 133 -225 209 -45 68 -92 214 -108 328 -23 178 -6 428 38 557 80 232 254
393 492 456 136 35 345 33 492 -5z m1128 -311 c163 -46 255 -131 298 -272 13
-45 16 -144 21 -626 6 -548 7 -574 25 -587 10 -8 22 -16 26 -17 5 -2 10 -19
12 -38 3 -34 2 -34 -57 -53 -75 -24 -260 -34 -336 -18 -116 25 -192 88 -205
171 l-6 37 -72 -71 c-100 -101 -207 -146 -348 -146 -223 0 -366 110 -397 307
-21 135 20 255 120 347 71 66 162 112 369 186 237 86 293 121 311 197 13 57 5
361 -11 403 -39 103 -94 140 -206 140 -48 0 -83 -7 -114 -21 l-45 -21 40 -20
c210 -106 216 -384 12 -482 -143 -68 -294 -28 -362 96 -27 47 -30 62 -30 138
0 104 18 144 100 218 131 120 297 163 600 157 147 -2 194 -7 255 -25z m-1357
-376 c65 -57 139 -87 227 -92 l76 -4 19 -47 c10 -25 45 -73 77 -105 l58 -60
-41 -52 c-74 -97 -162 -144 -267 -144 -66 0 -122 23 -170 70 -74 71 -95 154
-96 370 0 91 3 178 7 193 8 28 8 27 38 -32 17 -33 49 -77 72 -97z m1007 -193
c-6 -12 -15 -21 -21 -21 -10 0 -5 13 14 38 15 19 20 7 7 -17z m1015 -760 c94
-42 136 -139 99 -229 -48 -114 -190 -149 -281 -69 -65 57 -80 135 -42 214 42
88 138 124 224 84z"/>
<path d="M3167 1072 c-148 -164 -169 -206 -170 -352 -2 -109 11 -155 53 -195
40 -38 120 -46 168 -16 17 12 32 26 33 33 0 7 1 151 2 321 1 169 2 307 2 306
0 0 -40 -44 -88 -97z m-17 -338 c0 -122 -2 -135 -17 -132 -24 4 -36 62 -30
140 5 58 28 128 42 128 3 0 5 -61 5 -136z"/>
</g>
</svg>